<svg width="156" height="42" viewBox="0 0 156 42" fill="none" xmlns="http://www.w3.org/2000/svg">
<path d="M78.0162 10.6207L44.7361 42L32.5887 1.7717L78.0162 10.6207Z" fill="#FF8D30"/>
<ellipse cx="78.6236" cy="28.4735" rx="3.613" ry="3.57161" fill="#88BFEB"/>
<ellipse cx="92.8495" cy="18.0864" rx="12.5943" ry="12.45" fill="#EB9898"/>
<rect width="46.6582" height="23.5536" transform="matrix(0.939135 -0.343549 0.350582 0.936532 85.439 19.5749)" fill="#72A73E"/>
<ellipse cx="91.3341" cy="34.1406" rx="2.11696" ry="2.09272" fill="#FFBD30"/>
<ellipse rx="18.9194" ry="7.58723" transform="matrix(0.970246 0.242122 -0.247424 0.968907 132.047 28.0501)" fill="#8EC7F5"/>
<ellipse cx="146.385" cy="10.2562" rx="2.15293" ry="2.12827" fill="#FFBD30"/>
<ellipse cx="153.101" cy="7.72761" rx="2.15293" ry="2.12827" fill="#FFBD30"/>
<path d="M3.34155 35.349H8.33248V37.6688C8.33248 38.2211 7.88477 38.6688 7.33248 38.6688H4.34155C3.78927 38.6688 3.34155 38.2211 3.34155 37.6688V35.349Z" fill="#1D2959"/>
<path d="M34.2032 35.349H39.1942V37.6688C39.1942 38.2211 38.7465 38.6688 38.1942 38.6688H35.2032C34.651 38.6688 34.2032 38.2211 34.2032 37.6688V35.349Z" fill="#1D2959"/>
<path fill-rule="evenodd" clip-rule="evenodd" d="M23.9205 2.93804C22.947 2.55374 21.8836 2.24535 21.112 2.26056C20.3856 2.27488 19.3909 2.58611 18.4833 2.96056C17.9752 3.1702 17.4736 3.40137 16.99 3.6628L16.9868 3.66455C16.4147 3.97905 15.6944 3.77264 15.3782 3.20325C15.062 2.63378 15.2695 1.91701 15.8417 1.6023C16.0084 1.51188 16.1773 1.42555 16.3473 1.34147C16.653 1.19024 17.082 0.9881 17.5767 0.783995C18.5254 0.392564 19.8677 0.024811 21.0651 0.00120765C22.3393 -0.0239095 23.7771 0.346681 24.7933 0.747828C25.4274 0.998099 26.0525 1.27466 26.6532 1.59671L26.654 1.59711C27.229 1.90657 27.4432 2.62141 27.1322 3.19375C26.8231 3.76289 26.0944 3.97184 25.5245 3.66786C25.3788 3.59088 25.231 3.51777 25.0825 3.4464C24.7922 3.30694 24.3853 3.12153 23.9205 2.93804Z" fill="#8A4A38"/>
<path fill-rule="evenodd" clip-rule="evenodd" d="M15.9928 1.44998C15.4619 1.44998 15.0315 1.88038 15.0315 2.41131V3.02596C15.0315 3.4684 15.3902 3.82707 15.8326 3.82707H15.8543V6.89417H16.6931V3.80514H16.4747C17.0218 3.69862 17.4348 3.2168 17.4348 2.63853C17.4348 1.98211 16.9027 1.44998 16.2463 1.44998H15.9928Z" fill="#F6EF3E"/>
<path fill-rule="evenodd" clip-rule="evenodd" d="M26.5127 1.44998C27.0436 1.44998 27.474 1.88038 27.474 2.41131V3.02596C27.474 3.4684 27.1153 3.82707 26.6729 3.82707H26.6512V6.89417H25.8124V3.80514H26.0308C25.4837 3.69862 25.0707 3.2168 25.0707 2.63853C25.0707 1.98211 25.6028 1.44998 26.2592 1.44998H26.5127Z" fill="#F6EF3E"/>
<path d="M0 15.5203C0 10.5497 4.02944 6.52026 9 6.52026H33.5399C38.5105 6.52026 42.5399 10.5497 42.5399 15.5203V35.349H0V15.5203Z" fill="#8A4A38"/>
<ellipse cx="6.68408" cy="27.9276" rx="4.16748" ry="4.12104" fill="#EF9A9A"/>
<ellipse rx="4.01571" ry="7.727" transform="matrix(0.700848 -0.71331 0.721334 0.692588 32.7661 28.0696)" fill="#93C6EB"/>
<rect width="13.6922" height="7.62634" transform="matrix(0.688909 -0.724848 0.732721 0.680529 16.3958 17.905)" fill="#C2DEA3"/>
<rect width="6.95591" height="5.21665" rx="1" transform="matrix(0.733892 0.679267 -0.687658 0.726035 8.78491 11.1394)" fill="#C49A6C"/>
<rect x="8.33264" y="19.3622" width="5.86679" height="16.7996" fill="#F57B20"/>
<path d="M8.33264 5.43422H14.1994V19.982C14.1994 21.602 12.8861 22.9154 11.266 22.9154V22.9154C9.64597 22.9154 8.33264 21.6021 8.33264 19.982V5.43422Z" fill="#F6A725"/>
<rect x="7.51941" y="18.042" width="7.49871" height="1.64937" fill="#F6EF3E"/>
<rect x="28.3462" y="19.3622" width="5.86679" height="16.7996" fill="#F57B20"/>
<path d="M28.3462 5.43422H34.213V19.982C34.213 21.602 32.8997 22.9154 31.2796 22.9154V22.9154C29.6595 22.9154 28.3462 21.6021 28.3462 19.982V5.43422Z" fill="#F6A725"/>
<rect x="27.533" y="18.042" width="7.49871" height="1.64937" fill="#F6EF3E"/>
</svg>
