<svg width="19" height="17" viewBox="0 0 19 17" fill="none" xmlns="http://www.w3.org/2000/svg">
<path d="M2.01661 3.32528L8.76661 7.55572C8.99341 7.69747 9.28681 7.76467 9.58201 7.76467C9.87721 7.76467 10.1706 7.69747 10.3974 7.55572L17.1474 3.32528C17.5875 3.04913 18.0033 1.97498 17.196 1.97498H1.96891C1.16161 1.97498 1.57741 3.04913 2.01661 3.32528ZM17.3517 5.63842L10.3974 9.86677C10.0914 10.0537 9.87721 10.0757 9.58201 10.0757C9.28681 10.0757 9.07261 10.0537 8.76661 9.86677C8.46061 9.67987 2.34691 5.94082 1.84741 5.63737C1.49641 5.42317 1.50001 5.67412 1.50001 5.86732V13.525C1.50001 13.966 2.00941 14.575 2.40001 14.575H16.8C17.1906 14.575 17.7 13.966 17.7 13.525V5.86837C17.7 5.67517 17.7036 5.42422 17.3517 5.63842Z" fill="#161C35"/>
</svg>
