<svg width="17" height="15" viewBox="0 0 17 15" fill="none" xmlns="http://www.w3.org/2000/svg">
<path fill-rule="evenodd" clip-rule="evenodd" d="M8.50001 0.0861511C5.70357 0.0861511 2.90039 0.558819 1.88328 1.50093C1.0394 2.28252 0.7581 3.66329 0.663275 4.53753C0.663275 4.53753 0.650208 4.62393 0.650208 4.66109C0.650208 5.00391 0.944508 5.27887 1.30433 5.27887C1.34684 5.27887 2.92008 5.15837 3.86857 5.08425C3.8914 5.08112 3.9144 5.07806 3.93722 5.07191C4.29049 5.0627 4.57511 4.7908 4.57511 4.45413L4.57828 3.237C4.57828 2.86014 4.9022 2.55737 5.30126 2.55737H11.6987C12.0978 2.55737 12.4218 2.86011 12.4218 3.237L12.425 4.45413C12.425 4.7908 12.7096 5.0627 13.0628 5.07191C13.0855 5.0781 13.1085 5.08112 13.1316 5.08425C14.0802 5.15834 15.6534 5.27887 15.6957 5.27887C16.0554 5.27887 16.3499 5.00391 16.3499 4.66109C16.3499 4.62393 16.3369 4.53753 16.3369 4.53753C16.242 3.66329 15.961 2.28255 15.1171 1.50093C14.0996 0.558819 11.2965 0.0861511 8.50001 0.0861511ZM8.50001 8.11773C7.77717 8.11773 7.1917 8.67064 7.1917 9.35333C7.1917 10.036 7.77717 10.5889 8.50001 10.5889C9.22285 10.5889 9.80829 10.036 9.80829 9.35333C9.80829 8.67064 9.22285 8.11773 8.50001 8.11773ZM7.51879 5.33752V4.56528C7.51879 4.13902 7.15242 3.79304 6.70113 3.79304C6.24983 3.79304 5.88346 4.13905 5.88346 4.56528V5.33752L1.47101 9.7889C1.16695 10.07 0.977196 10.4622 0.977196 10.8948V12.1335C0.977196 12.8162 1.5627 13.3691 2.28551 13.3691H2.6126V14.1414C2.6126 14.5677 2.97901 14.9136 3.43031 14.9136C3.8816 14.9136 4.24798 14.5677 4.24798 14.1414V13.3691H12.752V14.1414C12.752 14.5677 13.1183 14.9136 13.5698 14.9136C14.0211 14.9136 14.3874 14.5677 14.3874 14.1414V13.3691H14.7145C15.4373 13.3691 16.0228 12.8162 16.0228 12.1335V10.8948C16.0228 10.4622 15.833 10.07 15.5289 9.7889L11.1167 5.33752V4.56528C11.1167 4.13902 10.7502 3.79304 10.2989 3.79304C9.84763 3.79304 9.4813 4.13905 9.4813 4.56528V5.33752H7.51879ZM8.50001 6.8821C9.9457 6.8821 11.1167 7.98799 11.1167 9.35333C11.1167 10.7187 9.94573 11.8247 8.50001 11.8247C7.05432 11.8247 5.88342 10.7187 5.88342 9.35333C5.88342 7.98795 7.05432 6.8821 8.50001 6.8821Z" fill="#FFD74B"/>
</svg>
